<svg xmlns="http://www.w3.org/2000/svg" viewBox="0 0 1000 550" font-family="-apple-system, BlinkMacSystemFont, 'Segoe UI', Roboto, Arial, sans-serif">
<defs>
<linearGradient id="grayGrad" x1="0" y1="0" x2="0" y2="1">
<stop offset="0%" stop-color="#dbdbdb"/>
<stop offset="100%" stop-color="#bebebe"/>
</linearGradient>
<linearGradient id="greenGrad" x1="0" y1="0" x2="0" y2="1">
<stop offset="0%" stop-color="#80ff80"/>
<stop offset="100%" stop-color="#4de64d"/>
</linearGradient>
<filter id="shadow" x="-20%" y="-20%" width="140%" height="140%">
<feDropShadow dx="2" dy="2" stdDeviation="1.5" flood-opacity="0.35"/>
</filter>
</defs>
<g stroke="#000" stroke-width="1.5" fill="none" stroke-linejoin="miter">
<path d="M 340 75 L 340 100 L 100 100 L 100 125" />
<path d="M 340 100 L 340 125" />
<path d="M 340 100 L 590 100 L 590 125" />
<path d="M 820 75 L 820 125" />
<path d="M 100 175 L 100 200 L 150 200 L 150 225" />
<path d="M 340 175 L 340 210 L 210 210 L 210 225" />
<path d="M 340 210 L 420 210 L 420 405" />
<path d="M 340 210 L 570 210 L 570 405" />
<path d="M 590 175 L 590 405" />
<path d="M 180 275 L 180 295 L 100 295 L 100 315" />
<path d="M 180 295 L 260 295 L 260 405" />
<path d="M 100 365 L 100 405" />
<path d="M 820 175 L 820 280 L 740 280 L 740 315" />
<path d="M 820 280 L 900 280 L 900 405" />
<path d="M 740 365 L 740 405" />
</g>
<g text-anchor="middle" font-size="13px" fill="#000">
<g transform="translate(280, 25)">
<rect width="140" height="50" stroke="#444" stroke-width="0.5" filter="url(#shadow)" fill="url(#grayGrad)" />
<text x="70" y="30">Collection</text>
</g>
<g transform="translate(760, 25)">
<rect width="140" height="50" stroke="#444" stroke-width="0.5" filter="url(#shadow)" fill="url(#grayGrad)" />
<text x="70" y="30">Map</text>
</g>
<g transform="translate(40, 125)">
<rect width="140" height="50" stroke="#444" stroke-width="0.5" filter="url(#shadow)" fill="url(#grayGrad)" />
<text x="70" y="30">Set</text>
</g>
<g transform="translate(280, 125)">
<rect width="140" height="50" stroke="#444" stroke-width="0.5" filter="url(#shadow)" fill="url(#greenGrad)" />
<text x="70" y="30">SequencedCollection</text>
</g>
<g transform="translate(530, 125)">
<rect width="140" height="50" stroke="#444" stroke-width="0.5" filter="url(#shadow)" fill="url(#grayGrad)" />
<text x="70" y="30">Queue</text>
</g>
<g transform="translate(760, 125)">
<rect width="140" height="50" stroke="#444" stroke-width="0.5" filter="url(#shadow)" fill="url(#greenGrad)" />
<text x="70" y="30">SequencedMap</text>
</g>
<g transform="translate(120, 225)">
<rect width="140" height="50" stroke="#444" stroke-width="0.5" filter="url(#shadow)" fill="url(#greenGrad)" />
<text x="70" y="30">SequencedSet</text>
</g>
<g transform="translate(40, 315)">
<rect width="140" height="50" stroke="#444" stroke-width="0.5" filter="url(#shadow)" fill="url(#grayGrad)" />
<text x="70" y="30">SortedSet</text>
</g>
<g transform="translate(680, 315)">
<rect width="140" height="50" stroke="#444" stroke-width="0.5" filter="url(#shadow)" fill="url(#grayGrad)" />
<text x="70" y="30">SortedMap</text>
</g>
<g transform="translate(40, 405)">
<rect width="140" height="50" stroke="#444" stroke-width="0.5" filter="url(#shadow)" fill="url(#grayGrad)" />
<text x="70" y="30">NavigableSet</text>
</g>
<g transform="translate(200, 405)">
<rect width="140" height="50" stroke="#444" stroke-width="0.5" filter="url(#shadow)" fill="url(#grayGrad)" />
<text x="70" y="21" font-size="10px">&lt;&lt;implementation&gt;&gt;</text>
<text x="70" y="37" font-style="italic">LinkedHashSet</text>
</g>
<g transform="translate(360, 405)">
<rect width="140" height="50" stroke="#444" stroke-width="0.5" filter="url(#shadow)" fill="url(#grayGrad)" />
<text x="70" y="30">List</text>
</g>
<g transform="translate(510, 405)">
<rect width="140" height="50" stroke="#444" stroke-width="0.5" filter="url(#shadow)" fill="url(#grayGrad)" />
<text x="70" y="30">Deque</text>
</g>
<g transform="translate(680, 405)">
<rect width="140" height="50" stroke="#444" stroke-width="0.5" filter="url(#shadow)" fill="url(#grayGrad)" />
<text x="70" y="30">NavigableMap</text>
</g>
<g transform="translate(840, 405)">
<rect width="140" height="50" stroke="#444" stroke-width="0.5" filter="url(#shadow)" fill="url(#grayGrad)" />
<text x="70" y="21" font-size="10px">&lt;&lt;implementation&gt;&gt;</text>
<text x="70" y="37" font-style="italic">LinkedHashMap</text>
</g>
</g>
</svg>
